<?xml version="1.0" encoding="UTF-8" standalone="no"?><!DOCTYPE svg PUBLIC "-//W3C//DTD SVG 1.1//EN" "http://www.w3.org/Graphics/SVG/1.1/DTD/svg11.dtd"><svg width="100%" height="100%" viewBox="0 0 289 42" version="1.1" xmlns="http://www.w3.org/2000/svg" xmlns:xlink="http://www.w3.org/1999/xlink" xml:space="preserve" xmlns:serif="http://www.serif.com/" style="fill-rule:evenodd;clip-rule:evenodd;stroke-linejoin:round;stroke-miterlimit:2;"><g><g><path d="M83.953,41.707l-15.874,0c0,0 14.303,-27.347 19.746,-37.753c1.271,-2.43 3.787,-3.954 6.53,-3.954l11.412,0l-21.814,41.707Z" style="fill:#4a80ff;"/><path d="M61.228,41.707l-15.874,0c0,0 14.304,-27.347 19.746,-37.753c1.272,-2.43 3.788,-3.954 6.531,-3.954l11.412,0l-21.815,41.707Z" style="fill:#ff641a;"/></g><g><path d="M38.551,41.707l-15.874,0c0,0 14.304,-27.347 19.746,-37.753c1.272,-2.43 3.788,-3.954 6.531,-3.954l11.411,0l-21.814,41.707Z" style="fill:#8fcc27;"/><path d="M15.874,41.707l-15.874,0c0,0 14.304,-27.347 19.746,-37.753c1.271,-2.43 3.788,-3.954 6.531,-3.954l11.411,0l-21.814,41.707Z" style="fill:#ffc94a;"/></g><path d="M227.538,41.707l-15.874,0c0,0 14.288,-27.302 19.743,-37.726c1.28,-2.446 3.814,-3.979 6.576,-3.979l11.381,0l5.189,34.284l15.861,-30.305c1.28,-2.446 3.813,-3.979 6.575,-3.979l11.381,0l-21.826,41.705l-15.874,0l-3.622,0c-2.282,0 -4.22,-1.667 -4.562,-3.921l-2.893,-19.115l-12.055,23.036Z"/><path d="M141.446,41.707c-1.586,0 -3.058,-0.829 -3.879,-2.185c-0.822,-1.357 -0.875,-3.044 -0.14,-4.449c6.159,-11.768 18.355,-35.073 18.355,-35.073l15.874,0l-18.409,35.176l12.028,0l-3.417,6.529l-12.028,0.002l-8.384,0Z"/><path d="M110.585,3.981c1.28,-2.446 3.813,-3.979 6.575,-3.979l11.381,0l6.313,41.705l-44.012,0l19.743,-37.726Zm-0.442,31.176l11.123,0l-2.496,-16.487l-8.627,16.487Z"/><path d="M185.234,4.004c1.281,-2.446 3.814,-3.98 6.576,-3.98l11.381,0l6.313,41.705l-44.012,0l19.742,-37.725Zm-0.441,31.176l11.123,0l-2.496,-16.487l-8.627,16.487Z"/></g></svg>