<?xml version="1.0" encoding="UTF-8" standalone="no"?>
<!DOCTYPE svg PUBLIC '-//W3C//DTD SVG 1.1//EN' 'http://www.w3.org/Graphics/SVG/1.1/DTD/svg11.dtd'>
<svg height="100%" style="fill-rule:evenodd;clip-rule:evenodd;stroke-linejoin:round;stroke-miterlimit:1.41421;" version="1.1" viewBox="0 0 1258 308" width="100%" xml:space="preserve" xmlns="http://www.w3.org/2000/svg" xmlns:serif="http://www.serif.com/" xmlns:xlink="http://www.w3.org/1999/xlink">
	<g>
		<path d="M304.708,152.811c0,84.194 -68.628,152.332 -152.822,152.332c-84.196,0 -151.886,-68.308 -151.886,-152.503c0,-84.196 68.009,-152.508 153.01,-152.508l0,152.905" style="fill:#05bdff;"/>
		<path d="M177.858,42.755c0,0 77.007,0.283 82.674,84.282l-82.522,0" style="fill:#d86531;"/>
		<path d="M487.195,142.361l48.466,83.084l-66.022,0l-20.772,-42.535l-6.676,6.928l0,35.607l-55.636,0l0,-183.479l55.636,0l0,83.33l31.404,-35.114l62.808,0l-49.208,52.179Z" style="fill:#fff;fill-rule:nonzero;"/>
		<path d="M543.406,307.997c-14.838,0 -28.191,-2.964 -38.824,-8.404l12.365,-38.081c4.699,2.227 9.15,3.459 13.6,3.459c6.923,0.253 10.88,-3.703 10.88,-11.371l0,-163.418l55.639,0l0,171.825c0,28.435 -21.02,46.237 -53.66,45.99Z" style="fill:#fff;fill-rule:nonzero;"/>
		<path d="M678.076,125.296c-9.643,0 -15.579,7.912 -17.804,19.289l33.628,0c0.743,-11.129 -6.182,-19.289 -15.824,-19.289Zm71.461,45.007l-88.029,0c3.709,10.629 11.62,16.07 22.502,16.07c9.395,0 19.042,-4.202 27.446,-12.114l28.933,28.435c-14.342,15.823 -35.113,24.73 -61.326,24.73c-46.239,0 -73.685,-27.202 -73.685,-68.989c0,-42.785 28.685,-70.23 72.203,-70.23c47.228,0 74.923,32.149 71.956,82.098Z" style="fill:#fff;fill-rule:nonzero;"/>
		<path d="M854.132,87.711l0,50.195c-24.978,-3.706 -41.294,5.195 -41.294,22.997l0,64.542l-55.64,0l0,-135.263l55.64,0l0,19.78c9.391,-14.092 23.735,-22.251 41.294,-22.251Z" style="fill:#fff;fill-rule:nonzero;"/>
		<path d="M1005.46,139.145l0,86.3l-55.642,0l0,-70.23c0,-11.371 -6.433,-18.543 -16.075,-18.543c-10.882,0 -17.803,8.652 -17.803,21.763l0,67.01l-55.641,0l0,-135.263l55.641,0l0,19.29c9.149,-13.848 23.241,-21.761 41.045,-21.761c28.439,0 48.475,20.274 48.475,51.434Z" style="fill:#fff;fill-rule:nonzero;"/>
		<path d="M1081.85,125.296c-9.64,0 -15.57,7.912 -17.8,19.289l33.63,0c0.74,-11.129 -6.18,-19.289 -15.83,-19.289Zm71.47,45.007l-88.03,0c3.71,10.629 11.62,16.07 22.5,16.07c9.39,0 19.04,-4.202 27.44,-12.114l28.94,28.435c-14.34,15.823 -35.12,24.73 -61.33,24.73c-46.23,0 -73.68,-27.202 -73.68,-68.989c0,-42.785 28.679,-70.23 72.2,-70.23c47.23,0 74.92,32.149 71.96,82.098Z" style="fill:#fff;fill-rule:nonzero;"/>
		<path d="M1257.91,87.711l0,50.195c-24.98,-3.706 -41.3,5.195 -41.3,22.997l0,64.542l-55.64,0l0,-135.263l55.64,0l0,19.78c9.4,-14.092 23.74,-22.251 41.3,-22.251Z" style="fill:#fff;fill-rule:nonzero;"/>
		<path d="M598.456,46.215c0,16.57 -12.362,28.193 -30.414,28.193c-17.802,0 -30.414,-11.623 -30.414,-28.193c0,-16.566 12.612,-28.184 30.414,-28.184c18.052,0 30.414,11.618 30.414,28.184Z" style="fill:#05bdff;fill-rule:nonzero;"/>
	</g>
</svg>
