<?xml version="1.0" encoding="UTF-8" standalone="no"?>
<!DOCTYPE svg PUBLIC "-//W3C//DTD SVG 1.1//EN" "http://www.w3.org/Graphics/SVG/1.1/DTD/svg11.dtd">
<svg width="100%" height="100%" viewBox="0 0 512 512" version="1.1" xmlns="http://www.w3.org/2000/svg" xmlns:xlink="http://www.w3.org/1999/xlink" xml:space="preserve" xmlns:serif="http://www.serif.com/" style="fill-rule:evenodd;clip-rule:evenodd;stroke-linejoin:round;stroke-miterlimit:2;">
    <g transform="matrix(1.34079,0,0,1.37297,-397.821,-404.572)">
        <g transform="matrix(2.49104,0,-1.74664,3.33941,-157.162,-471.835)">
            <path d="M466.894,311.387L440.342,311.387L440.342,263C440.342,260.759 442.516,259.349 445.97,259.349L466.894,259.349L466.894,311.387Z" style="fill:rgb(74,128,255);"/>
        </g>
        <g transform="matrix(2.49104,0,-1.74664,3.33941,-251.847,-471.835)">
            <path d="M466.894,311.387L440.342,311.387L440.342,263C440.342,260.759 442.516,259.349 445.97,259.349L466.894,259.349L466.894,311.387Z" style="fill:rgb(255,100,26);"/>
        </g>
        <g transform="matrix(1,0,0,0.999454,0,0.215413)">
            <path d="M572.974,410.834C578.308,400.636 588.864,394.244 600.373,394.244L647.793,394.244L674.095,568.11L490.712,568.11L572.974,410.834ZM571.133,540.804L617.479,540.804L607.081,472.074L571.133,540.804Z"/>
        </g>
    </g>
</svg>
